<?xml version="1.0" encoding="UTF-8"?>
<svg width="200" height="50" viewBox="0 0 200 50" fill="none" xmlns="http://www.w3.org/2000/svg">
  <!-- Robot head icon -->
  <g transform="translate(0, 5) scale(0.9)">
    <rect x="5" y="10" width="30" height="25" rx="6" fill="#6366F1" />
    <rect x="10" y="5" width="20" height="5" rx="2" fill="#6366F1" />
    <circle cx="15" cy="20" r="3" fill="white" />
    <circle cx="25" cy="20" r="3" fill="white" />
    <rect x="15" y="28" width="10" height="2" rx="1" fill="white" />
    <rect x="12" y="35" width="16" height="3" rx="1.5" fill="#4F46E5" />
    <rect x="2" y="18" width="3" height="8" rx="1.5" fill="#4F46E5" />
    <rect x="35" y="18" width="3" height="8" rx="1.5" fill="#4F46E5" />
  </g>
  
  <!-- Text "CourseBotics" -->
  <g transform="translate(45, 30)">
    <text font-family="Arial, sans-serif" font-weight="bold" font-size="20" fill="#1F2937" class="dark-text">
      Course<tspan fill="#6366F1">Botics</tspan>
    </text>
  </g>
  
  <!-- Gear icon -->
  <g transform="translate(170, 25) scale(0.7)">
    <circle cx="15" cy="15" r="12" fill="#6366F1" opacity="0.8" />
    <circle cx="15" cy="15" r="6" fill="#4F46E5" />
    <path d="M15 0V6M15 24V30M0 15H6M24 15H30M4.4 4.4L8.5 8.5M21.5 21.5L25.6 25.6M4.4 25.6L8.5 21.5M21.5 8.5L25.6 4.4" stroke="#4F46E5" stroke-width="2" />
  </g>
  
  <style>
    @media (prefers-color-scheme: dark) {
      .dark-text { fill: #F9FAFB; }
    }
  </style>
</svg>